# Made in Blockbench 4.7.1
mtllib bulletshoot.mtl

o sphere
v 0 0.40625 0
v 0.006898417366164637 0.39197741234586625 0.035876571784227165
v 0.012746613222639855 0.3513325214724777 0.06629126073623881
v 0.016654252764304756 0.29050314356845436 0.08661370617293314
v 0.018026433293781504 0.21875 0.09375
v 0.019645030588804492 0.39197741234586625 0.030414688952011673
v 0.036299283353109245 0.3513325214724777 0.05619901722092146
v 0.047427299280726115 0.29050314356845436 0.07342755456330571
v 0.05133493882239101 0.21875 0.07947741234586625
v 0.029400865986944608 0.39197741234586625 0.02032244543669431
v 0.054325716646890766 0.3513325214724777 0.03755098277907853
v 0.07097996941119551 0.29050314356845436 0.04906272339385461
v 0.07682816526767072 0.21875 0.0531051091266114
v 0.03468068605808626 0.39197741234586625 0.007136293827066869
v 0.06408155204503087 0.3513325214724777 0.013186151609627439
v 0.08372658263383537 0.29050314356845436 0.017228537342384234
v 0.09062500000000001 0.21875 0.01864803444184294
v 0.03468068605808626 0.39197741234586625 -0.007136293827066863
v 0.06408155204503087 0.3513325214724777 -0.01318615160962743
v 0.08372658263383537 0.29050314356845436 -0.017228537342384217
v 0.09062500000000001 0.21875 -0.01864803444184293
v 0.029400865986944618 0.39197741234586625 -0.020322445436694293
v 0.054325716646890766 0.3513325214724777 -0.037550982779078514
v 0.07097996941119554 0.29050314356845436 -0.049062723393854576
v 0.07682816526767075 0.21875 -0.05310510912661136
v 0.019645030588804492 0.39197741234586625 -0.030414688952011673
v 0.036299283353109245 0.3513325214724777 -0.05619901722092146
v 0.047427299280726115 0.29050314356845436 -0.07342755456330573
v 0.05133493882239101 0.21875 -0.07947741234586626
v 0.006898417366164652 0.39197741234586625 -0.035876571784227165
v 0.012746613222639874 0.3513325214724777 -0.06629126073623881
v 0.016654252764304784 0.29050314356845436 -0.08661370617293314
v 0.01802643329378154 0.21875 -0.09375
v -0.006898417366164642 0.39197741234586625 -0.035876571784227165
v -0.01274661322263986 0.3513325214724777 -0.06629126073623881
v -0.016654252764304763 0.29050314356845436 -0.08661370617293314
v -0.018026433293781518 0.21875 -0.09375
v -0.01964503058880449 0.39197741234586625 -0.030414688952011673
v -0.03629928335310923 0.3513325214724777 -0.05619901722092147
v -0.0474272992807261 0.29050314356845436 -0.07342755456330573
v -0.05133493882239099 0.21875 -0.07947741234586629
v -0.029400865986944608 0.39197741234586625 -0.020322445436694304
v -0.054325716646890766 0.3513325214724777 -0.03755098277907853
v -0.07097996941119551 0.29050314356845436 -0.0490627233938546
v -0.07682816526767072 0.21875 -0.053105109126611386
v -0.03468068605808626 0.39197741234586625 -0.0071362938270668795
v -0.06408155204503085 0.3513325214724777 -0.01318615160962746
v -0.08372658263383537 0.29050314356845436 -0.01722853734238426
v -0.09062499999999998 0.21875 -0.01864803444184298
v -0.03468068605808626 0.39197741234586625 0.007136293827066868
v -0.06408155204503087 0.3513325214724777 0.013186151609627439
v -0.08372658263383537 0.29050314356845436 0.01722853734238423
v -0.09062500000000001 0.21875 0.01864803444184294
v -0.029400865986944618 0.39197741234586625 0.02032244543669429
v -0.054325716646890766 0.3513325214724777 0.03755098277907851
v -0.07097996941119554 0.29050314356845436 0.04906272339385456
v -0.07682816526767075 0.21875 0.053105109126611344
v -0.019645030588804492 0.39197741234586625 0.030414688952011673
v -0.036299283353109245 0.3513325214724777 0.05619901722092146
v -0.047427299280726115 0.29050314356845436 0.07342755456330571
v -0.05133493882239101 0.21875 0.07947741234586625
v -0.0068984173661646555 0.39197741234586625 0.03587657178422716
v -0.012746613222639884 0.3513325214724777 0.0662912607362388
v -0.01665425276430479 0.29050314356845436 0.08661370617293314
v -0.01802643329378155 0.21875 0.09374999999999999
vt 0.4757731725862724 0.8496151502037126
vt 0.46433649832345464 0.8417811609226247
vt 0.49107025912694874 0.8135030233504372
vt 0.482843582753657 0.9226862698302559
vt 0.47829289267924513 0.8717917123071606
vt 0.5038969079861826 0.8728285465090039
vt 0.496694730546532 0.9232471718448141
vt 0.47829289267924513 0.8717917123071606
vt 0.4764776089639784 0.8075656669572943
vt 0.5099314406711161 0.8089203793522393
vt 0.5038969079861826 0.8728285465090039
vt 0.4764776089639784 0.8075656669572943
vt 0.47784642857142856 0.7354557500113931
vt 0.5140542531445075 0.7369219853046339
vt 0.509931440671116 0.8089203793522393
vt 0.46433649832345464 0.8417811609226247
vt 0.456400797973642 0.8302020389262044
vt 0.491069813644274 0.813503494568103
vt 0.4319241071428572 0.7812499999999998
vt 0.42496160714285725 0.7187499999999999
vt 0.45089285714285726 0.7187499999999999
vt 0.44596160714285715 0.7812499999999998
vt 0.4152114702645419 0.848923104417878
vt 0.4057772763436615 0.7854260393351065
vt 0.43956976582156326 0.7828902335192165
vt 0.4410700167130507 0.8469826657734429
vt 0.4057772763436615 0.7854260393351065
vt 0.39875581565756363 0.7136564855155474
vt 0.43532798981033516 0.7109120907299253
vt 0.43956976582156326 0.7828902335192165
vt 0.456400797973642 0.8302020389262044
vt 0.4530085102313828 0.8164067526683474
vt 0.49107233086889895 0.8135022821314
vt 0.45500386393773473 0.8965997119453294
vt 0.4464218061364339 0.8466325176028646
vt 0.47265390628740067 0.8456632799283779
vt 0.4692004267099128 0.8960751697467322
vt 0.4464218061364339 0.8466325176028646
vt 0.43956987282836446 0.7828920493036413
vt 0.4738402379541633 0.7816258095131869
vt 0.47265390628740067 0.8456632799283779
vt 0.43956987282836446 0.7828920493036413
vt 0.43532798981033516 0.7109120907299253
vt 0.47242142857142855 0.7095415425040263
vt 0.4738402379541633 0.7816258095131869
vt 0.4530085102313828 0.8164067526683474
vt 0.45460291925915053 0.8022210738036553
vt 0.49107107078211115 0.8135023782826766
vt 0.49332539102247935 0.8973214285714285
vt 0.4832020004870441 0.847819955155811
vt 0.5094890307481621 0.8456675924886325
vt 0.5075527789647527 0.8961565005307092
vt 0.4832020004870441 0.847819955155811
vt 0.4739550635347116 0.7844381620598271
vt 0.5083026191886937 0.7816258095131869
vt 0.5094890307481621 0.8456675924886325
vt 0.47384017857142857 0.7816227925040264
vt 0.47242142857142855 0.7095415425040263
vt 0.5097214285714284 0.7095415425040263
vt 0.5083026785714284 0.7816227925040264
vt 0.45460291925915053 0.8022210738036553
vt 0.4609729429514065 0.7895230291816436
vt 0.49107227808491066 0.8135027517578848
vt 0.5129424304329442 0.8960751697467322
vt 0.5094889508554563 0.8456632799283779
vt 0.5357210510064232 0.8466325176028646
vt 0.5271389932051223 0.8965997119453294
vt 0.5094889508554563 0.8456632799283779
vt 0.5083026191886937 0.7816258095131869
vt 0.5425729843144926 0.7828920493036413
vt 0.5357210510064232 0.8466325176028646
vt 0.5083026191886937 0.7816258095131869
vt 0.5097214285714284 0.7095415425040263
vt 0.5468148673325219 0.7109120907299253
vt 0.5425729843144926 0.7828920493036413
vt 0.4609729429514065 0.7895230291816436
vt 0.4712810596012307 0.779994433409778
vt 0.49107009281125064 0.8135010107806874
vt 0.4609729429514065 0.7895230291816436
vt 0.42310230283431727 0.7558189491949873
vt 0.44214432241584944 0.738216926106176
vt 0.4712810596012307 0.779994433409778
vt 0.5410728404298064 0.8469826657734429
vt 0.5425730913212938 0.7828902335192165
vt 0.5763655807991954 0.7854260393351065
vt 0.566931386878315 0.848923104417878
vt 0.5425730913212938 0.7828902335192165
vt 0.5468148673325219 0.7109120907299253
vt 0.5833870414852933 0.7136564855155474
vt 0.5763655807991954 0.7854260393351065
vt 0.4712810596012307 0.779994433409778
vt 0.4841714285714285 0.7748946987047017
vt 0.4910704225747438 0.8135015691326737
vt 0.45866241231061106 0.9053900289876713
vt 0.4514602348709606 0.8549714036518612
vt 0.4770642501778981 0.8539345694500178
vt 0.4725135601034861 0.904829126973113
vt 0.4514602348709606 0.8549714036518612
vt 0.445425702186027 0.7910632364950965
vt 0.47887953389316473 0.7897085241001516
vt 0.4770642501778981 0.8539345694500178
vt 0.445425702186027 0.7910632364950965
vt 0.4413028897126356 0.7190648424474912
vt 0.47751071428571457 0.7175986071542504
vt 0.4788795338931646 0.7897085241001516
vt 0.4841714285714285 0.7748946987047017
vt 0.49797142857142856 0.7748946987047017
vt 0.49107142857142866 0.8135071987047017
vt 0.4989634666103663 0.90625
vt 0.48862094867369954 0.8562035444476361
vt 0.5140071442548604 0.8539333615992621
vt 0.5127086161550458 0.9050208279231953
vt 0.48862094867369954 0.8562035444476361
vt 0.4790118008951385 0.7926756831442499
vt 0.5121918946782643 0.7897085241001516
vt 0.5140071442548604 0.8539333615992621
vt 0.4788794642857145 0.7897048571542504
vt 0.47751071428571457 0.7175986071542504
vt 0.5135607142857145 0.7175986071542504
vt 0.5121919642857146 0.7897048571542504
vt 0.49797142857142856 0.7748946987047017
vt 0.5108617975416263 0.779994433409778
vt 0.4910724345681135 0.8135015691326737
vt 0.5185578684679429 0.904829126973113
vt 0.514007178393531 0.8539345694500178
vt 0.5396111937004685 0.8549714036518612
vt 0.5324090162608179 0.9053900289876713
vt 0.514007178393531 0.8539345694500178
vt 0.5121918946782643 0.7897085241001516
vt 0.545645726385402 0.7910632364950965
vt 0.5396111937004685 0.8549714036518612
vt 0.5121918946782643 0.7897085241001516
vt 0.5135607142857145 0.7175986071542504
vt 0.5497685388587934 0.7190648424474912
vt 0.5456457263854019 0.7910632364950965
vt 0.5108617975416263 0.779994433409778
vt 0.5211699141914508 0.7895230291816436
vt 0.4910727643316067 0.8135010107806874
vt 0.5108617975416263 0.779994433409778
vt 0.5399985347270075 0.738216926106176
vt 0.5590405543085397 0.7558189491949873
vt 0.5211699141914508 0.7895230291816436
vt 0.43753289883597046 0.8355302472750212
vt 0.42809870491509006 0.7720331821922497
vt 0.46189119439299176 0.7694973763763597
vt 0.4633914452844792 0.8335898086305861
vt 0.42809870491509006 0.7720331821922497
vt 0.4210772442289922 0.7002636283726906
vt 0.45764941838176376 0.6975192335870687
vt 0.46189119439299176 0.7694973763763597
vt 0.5211699141914508 0.7895230291816436
vt 0.5275399378837067 0.8022210738036553
vt 0.49107057905794643 0.8135027517578848
vt 0.47732529250916333 0.8832068548024724
vt 0.4687432347078625 0.8332396604600077
vt 0.4949753348588294 0.8322704227855211
vt 0.4915218552813413 0.8826823126038752
vt 0.4687432347078625 0.8332396604600077
vt 0.46189130139979295 0.7694991921607846
vt 0.4961616665255918 0.7682329523703303
vt 0.4949753348588294 0.8322704227855211
vt 0.46189130139979295 0.7694991921607846
vt 0.45764941838176376 0.6975192335870687
vt 0.49474285714285715 0.6961486853611697
vt 0.4961616665255918 0.7682329523703303
vt 0.5275399378837067 0.8022210738036553
vt 0.5291343469114744 0.8164067526683474
vt 0.49107178636074617 0.8135023782826766
vt 0.5156468195939079 0.8839285714285715
vt 0.5055234290584728 0.8344270980129541
vt 0.5318104593195908 0.8322747353457758
vt 0.5298742075361813 0.8827636433878522
vt 0.5055234290584728 0.8344270980129541
vt 0.4962764921061402 0.7710453049169704
vt 0.5306240477601224 0.7682329523703303
vt 0.5318104593195908 0.8322747353457758
vt 0.49616160714285706 0.7682299353611697
vt 0.49474285714285715 0.6961486853611697
vt 0.5320428571428572 0.6961486853611697
vt 0.5306241071428571 0.7682299353611697
vt 0.5291343469114744 0.8164067526683474
vt 0.525742059169215 0.8302020389262044
vt 0.49107052627395814 0.8135022821314
vt 0.5352638590043729 0.8826823126038752
vt 0.5318103794268849 0.8322704227855211
vt 0.5580424795778517 0.8332396604600077
vt 0.549460421776551 0.8832068548024724
vt 0.5318103794268849 0.8322704227855211
vt 0.5306240477601224 0.7682329523703303
vt 0.5648944128859211 0.7694991921607846
vt 0.5580424795778517 0.8332396604600077
vt 0.5306240477601224 0.7682329523703303
vt 0.5320428571428572 0.6961486853611697
vt 0.5691362959039504 0.6975192335870687
vt 0.5648944128859211 0.7694991921607846
vt 0.525742059169215 0.8302020389262044
vt 0.5178063588194026 0.8417811609226247
vt 0.4910730434985831 0.813503494568103
vt 0.5585026785714287 0.8035714285714286
vt 0.5535714285714286 0.7410714285714284
vt 0.5795026785714286 0.7410714285714284
vt 0.5725401785714286 0.8035714285714286
vt 0.5633942690012349 0.8335898086305861
vt 0.5648945198927223 0.7694973763763597
vt 0.5986870093706239 0.7720331821922497
vt 0.5892528154497436 0.8355302472750212
vt 0.5648945198927223 0.7694973763763597
vt 0.5691362959039504 0.6975192335870687
vt 0.6057084700567218 0.7002636283726906
vt 0.5986870093706239 0.7720331821922497
vt 0.5178063588194024 0.8417811609226247
vt 0.5063696845565848 0.8496151502037126
vt 0.49107259801590836 0.8135030233504372
vt 0.4943766980248969 0.9277114575590998
vt 0.48717452058524646 0.8772928322232897
vt 0.5127785358921839 0.8762559980214464
vt 0.5082278458177719 0.9271505555445416
vt 0.48717452058524646 0.8772928322232897
vt 0.48113998790031287 0.8133846650665251
vt 0.5145938196074505 0.8120299526715801
vt 0.5127785358921839 0.8762559980214464
vt 0.48113998790031287 0.8133846650665251
vt 0.47701717542692146 0.7413862710189196
vt 0.5132250000000004 0.7399200357256789
vt 0.5145938196074504 0.8120299526715801
vt 0.48922885727338833 0.8526785714285714
vt 0.4757731725862724 0.8496151502037126
vt 0.4910724897156898 0.8134977575566303
vt 0.46324918089608036 0.9241071428571429
vt 0.4529066629594136 0.8740606873047789
vt 0.47829285854057446 0.8717905044564049
vt 0.4769943304407599 0.9228779707803382
vt 0.4529066629594136 0.8740606873047789
vt 0.4432975151808526 0.8105328260013926
vt 0.4764776089639784 0.8075656669572943
vt 0.47829285854057446 0.8717905044564049
vt 0.44316517857142856 0.8075620000113931
vt 0.44179642857142865 0.7354557500113931
vt 0.47784642857142856 0.7354557500113931
vt 0.47647767857142864 0.8075620000113931
vn 0.14623327319632837 0.9285205111057073 0.34127040637342704
vn 0.31592291628200175 0.5971667656721301 0.73728187618072
vn 0.3737557317765829 0.31541877110007194 0.872248618114051
vn 0.39194724445958584 0.09846831101123253 0.9147028748654575
vn 0.26974777882835 0.9269532605127497 0.26075618620073826
vn 0.5791928869066001 0.5925054891228015 0.5598864573430474
vn 0.6831006294299615 0.3119888100842926 0.6603306084489629
vn 0.7155773618084322 0.09729267052639017 0.6917247830814851
vn 0.35184957120697846 0.9253939193139793 0.14088283549878552
vn 0.7509358312134716 0.5879516887265857 0.30067954556851517
vn 0.8830151048398649 0.30866836472894327 0.35356493779814
vn 0.9240446284201215 0.09615815781762387 0.3699934234186343
vn 0.38057436286579477 0.9247503199941562 0
vn 0.810241649630806 0.5860959556280443 0
vn 0.9516050328000627 0.3073237080825231 0
vn 0.9954102494210078 0.09569971445938248 0
vn 0.3518495712069785 0.9253939193139793 -0.14088283549878539
vn 0.7509358312134718 0.5879516887265855 -0.30067954556851517
vn 0.8830151048398651 0.30866836472894343 -0.3535649377981395
vn 0.9240446284201215 0.09615815781762409 -0.36999342341863406
vn 0.2697477788283501 0.9269532605127498 -0.26075618620073826
vn 0.5791928869066004 0.5925054891228017 -0.5598864573430472
vn 0.683100629429962 0.31198881008429247 -0.6603306084489626
vn 0.7155773618084326 0.09729267052639029 -0.6917247830814846
vn 0.14623327319632848 0.9285205111057073 -0.3412704063734269
vn 0.31592291628200186 0.59716676567213 -0.73728187618072
vn 0.3737557317765829 0.31541877110007205 -0.8722486181140509
vn 0.391947244459586 0.09846831101123223 -0.9147028748654576
vn 0 0.9291720199509467 -0.36964761238276367
vn 0 0.5991300128408031 -0.8006517518330797
vn 0 0.3168730181921259 -0.9484679701190825
vn 0 0.09896791597031616 -0.9950906248219267
vn -0.14623327319632842 0.9285205111057073 -0.3412704063734269
vn -0.31592291628200153 0.5971667656721301 -0.73728187618072
vn -0.3737557317765828 0.315418771100072 -0.8722486181140511
vn -0.39194724445958523 0.09846831101123259 -0.914702874865458
vn -0.26974777882835005 0.9269532605127497 -0.26075618620073826
vn -0.5791928869066002 0.5925054891228015 -0.5598864573430473
vn -0.6831006294299617 0.3119888100842926 -0.6603306084489627
vn -0.7155773618084326 0.09729267052639032 -0.6917247830814846
vn -0.35184957120697835 0.9253939193139793 -0.14088283549878566
vn -0.7509358312134716 0.5879516887265855 -0.30067954556851506
vn -0.8830151048398648 0.3086683647289432 -0.35356493779814036
vn -0.9240446284201215 0.09615815781762388 -0.36999342341863417
vn -0.3805743628657947 0.9247503199941564 0
vn -0.810241649630806 0.5860959556280441 -3.2781649766460456e-16
vn -0.9516050328000626 0.3073237080825232 0
vn -0.9954102494210078 0.09569971445938211 -7.25906851543531e-16
vn -0.3518495712069784 0.9253939193139793 0.14088283549878544
vn -0.7509358312134717 0.5879516887265855 0.30067954556851534
vn -0.883015104839865 0.3086683647289434 0.3535649377981397
vn -0.9240446284201215 0.09615815781762406 0.3699934234186342
vn -0.26974777882835016 0.9269532605127496 0.2607561862007382
vn -0.5791928869066005 0.5925054891228015 0.5598864573430471
vn -0.683100629429962 0.3119888100842924 0.6603306084489626
vn -0.7155773618084326 0.09729267052639029 0.6917247830814846
vn -0.14623327319632837 0.9285205111057073 0.341270406373427
vn -0.3159229162820017 0.59716676567213 0.73728187618072
vn -0.37375573177658333 0.31541877110007194 0.8722486181140509
vn -0.3919472444595861 0.09846831101123223 0.9147028748654576
vn -1.859082618527233e-16 0.9291720199509467 0.3696476123827637
vn -5.026601034418327e-16 0.599130012840803 0.8006517518330796
vn 0 0.3168730181921261 0.9484679701190825
vn -4.1705388738140737e-16 0.09896791597031596 0.9950906248219267
usemtl m_1a83d82d-9e4e-c6ce-42a8-a19519fd1f35
f 2/1/1 6/2/1 1/3/1
f 2/4/2 3/5/2 7/6/2 6/7/2
f 3/8/3 4/9/3 8/10/3 7/11/3
f 4/12/4 5/13/4 9/14/4 8/15/4
f 6/16/5 10/17/5 1/18/5
f 6/19/6 7/20/6 11/21/6 10/22/6
f 7/23/7 8/24/7 12/25/7 11/26/7
f 8/27/8 9/28/8 13/29/8 12/30/8
f 10/31/9 14/32/9 1/33/9
f 10/34/10 11/35/10 15/36/10 14/37/10
f 11/38/11 12/39/11 16/40/11 15/41/11
f 12/42/12 13/43/12 17/44/12 16/45/12
f 14/46/13 18/47/13 1/48/13
f 14/49/14 15/50/14 19/51/14 18/52/14
f 15/53/15 16/54/15 20/55/15 19/56/15
f 16/57/16 17/58/16 21/59/16 20/60/16
f 18/61/17 22/62/17 1/63/17
f 18/64/18 19/65/18 23/66/18 22/67/18
f 19/68/19 20/69/19 24/70/19 23/71/19
f 20/72/20 21/73/20 25/74/20 24/75/20
f 22/76/21 26/77/21 1/78/21
f 22/79/22 23/80/22 27/81/22 26/82/22
f 23/83/23 24/84/23 28/85/23 27/86/23
f 24/87/24 25/88/24 29/89/24 28/90/24
f 26/91/25 30/92/25 1/93/25
f 26/94/26 27/95/26 31/96/26 30/97/26
f 27/98/27 28/99/27 32/100/27 31/101/27
f 28/102/28 29/103/28 33/104/28 32/105/28
f 30/106/29 34/107/29 1/108/29
f 30/109/30 31/110/30 35/111/30 34/112/30
f 31/113/31 32/114/31 36/115/31 35/116/31
f 32/117/32 33/118/32 37/119/32 36/120/32
f 34/121/33 38/122/33 1/123/33
f 34/124/34 35/125/34 39/126/34 38/127/34
f 35/128/35 36/129/35 40/130/35 39/131/35
f 36/132/36 37/133/36 41/134/36 40/135/36
f 38/136/37 42/137/37 1/138/37
f 38/139/38 39/140/38 43/141/38 42/142/38
f 39/143/39 40/144/39 44/145/39 43/146/39
f 40/147/40 41/148/40 45/149/40 44/150/40
f 42/151/41 46/152/41 1/153/41
f 42/154/42 43/155/42 47/156/42 46/157/42
f 43/158/43 44/159/43 48/160/43 47/161/43
f 44/162/44 45/163/44 49/164/44 48/165/44
f 46/166/45 50/167/45 1/168/45
f 46/169/46 47/170/46 51/171/46 50/172/46
f 47/173/47 48/174/47 52/175/47 51/176/47
f 48/177/48 49/178/48 53/179/48 52/180/48
f 50/181/49 54/182/49 1/183/49
f 50/184/50 51/185/50 55/186/50 54/187/50
f 51/188/51 52/189/51 56/190/51 55/191/51
f 52/192/52 53/193/52 57/194/52 56/195/52
f 54/196/53 58/197/53 1/198/53
f 54/199/54 55/200/54 59/201/54 58/202/54
f 55/203/55 56/204/55 60/205/55 59/206/55
f 56/207/56 57/208/56 61/209/56 60/210/56
f 58/211/57 62/212/57 1/213/57
f 58/214/58 59/215/58 63/216/58 62/217/58
f 59/218/59 60/219/59 64/220/59 63/221/59
f 60/222/60 61/223/60 65/224/60 64/225/60
f 62/226/61 2/227/61 1/228/61
f 62/229/62 63/230/62 3/231/62 2/232/62
f 63/233/63 64/234/63 4/235/63 3/236/63
f 64/237/64 65/238/64 5/239/64 4/240/64
o sphere
v 0 0.20625 2.525834023241416e-17
v 0.0180872380312704 0.22052258765413374 -0.09212657178422713
v 0.05150809606477133 0.22052258765413374 -0.07810113635953142
v 0.07708731339446437 0.22052258765413374 -0.05218551091266113
v 0.09093068605808627 0.22052258765413374 -0.018325114492172608
v 0.09093068605808627 0.22052258765413374 0.01832511449217265
v 0.0770873133944644 0.22052258765413374 0.052185510912661145
v 0.05150809606477133 0.22052258765413374 0.07810113635953148
v 0.01808723803127044 0.22052258765413374 0.09212657178422719
v -0.018087238031270412 0.22052258765413374 0.09212657178422719
v -0.051508096064771317 0.22052258765413374 0.07810113635953148
v -0.07708731339446437 0.22052258765413374 0.05218551091266117
v -0.09093068605808627 0.22052258765413374 0.01832511449217269
v -0.09093068605808627 0.22052258765413374 -0.018325114492172605
v -0.0770873133944644 0.22052258765413374 -0.052185510912661076
v -0.05150809606477133 0.22052258765413374 -0.07810113635953142
v -0.018087238031270447 0.22052258765413374 -0.09212657178422712
vt 0.4757731725862724 0.8496151502037126
vt 0.46433649832345464 0.8417811609226247
vt 0.49107025912694874 0.8135030233504372
vt 0.46433649832345464 0.8417811609226247
vt 0.456400797973642 0.8302020389262044
vt 0.491069813644274 0.813503494568103
vt 0.456400797973642 0.8302020389262044
vt 0.4530085102313828 0.8164067526683474
vt 0.49107233086889895 0.8135022821314
vt 0.4530085102313828 0.8164067526683474
vt 0.45460291925915053 0.8022210738036553
vt 0.49107107078211115 0.8135023782826766
vt 0.45460291925915053 0.8022210738036553
vt 0.4609729429514065 0.7895230291816436
vt 0.49107227808491066 0.8135027517578848
vt 0.4609729429514065 0.7895230291816436
vt 0.4712810596012307 0.779994433409778
vt 0.49107009281125064 0.8135010107806874
vt 0.4712810596012307 0.779994433409778
vt 0.4841714285714285 0.7748946987047017
vt 0.4910704225747438 0.8135015691326737
vt 0.4841714285714285 0.7748946987047017
vt 0.49797142857142856 0.7748946987047017
vt 0.49107142857142866 0.8135071987047017
vt 0.49797142857142856 0.7748946987047017
vt 0.5108617975416263 0.779994433409778
vt 0.4910724345681135 0.8135015691326737
vt 0.5108617975416263 0.779994433409778
vt 0.5211699141914508 0.7895230291816436
vt 0.4910727643316067 0.8135010107806874
vt 0.5211699141914508 0.7895230291816436
vt 0.5275399378837067 0.8022210738036553
vt 0.49107057905794643 0.8135027517578848
vt 0.5275399378837067 0.8022210738036553
vt 0.5291343469114744 0.8164067526683474
vt 0.49107178636074617 0.8135023782826766
vt 0.5291343469114744 0.8164067526683474
vt 0.525742059169215 0.8302020389262044
vt 0.49107052627395814 0.8135022821314
vt 0.525742059169215 0.8302020389262044
vt 0.5178063588194026 0.8417811609226247
vt 0.4910730434985831 0.813503494568103
vt 0.5178063588194024 0.8417811609226247
vt 0.5063696845565848 0.8496151502037126
vt 0.49107259801590836 0.8135030233504372
vt 0.48922885727338833 0.8526785714285714
vt 0.4757731725862724 0.8496151502037126
vt 0.4910724897156898 0.8134977575566303
vn 0.059355629348532876 -0.9881662173778807 -0.14143703934164722
vn 0.10966287367048137 -0.9880578409373163 -0.1082393509802279
vn 0.14326573851291197 -0.9879495001472637 -0.058572291462104485
vn 0.15506267574863491 -0.9879046343598525 -1.2098342483316296e-16
vn 0.14326573851291202 -0.9879495001472639 0.058572291462104194
vn 0.10966287367048141 -0.9880578409373164 0.10823935098022763
vn 0.059355629348532925 -0.9881662173778808 0.14143703934164698
vn 0 -0.9882111188158063 0.15309730451191006
vn -0.05935562934853291 -0.9881662173778808 0.141437039341647
vn -0.1096628736704814 -0.9880578409373165 0.10823935098022769
vn -0.14326573851291194 -0.9879495001472637 0.058572291462104305
vn -0.15506267574863491 -0.9879046343598525 -1.2098342483316296e-16
vn -0.143265738512912 -0.9879495001472637 -0.05857229146210445
vn -0.10966287367048143 -0.9880578409373163 -0.10823935098022784
vn -0.05935562934853291 -0.9881662173778808 -0.14143703934164722
vn -5.873345345185938e-17 -0.9882111188158063 -0.15309730451191028
usemtl m_1a83d82d-9e4e-c6ce-42a8-a19519fd1f35
f 67/241/65 68/242/65 66/243/65
f 68/244/66 69/245/66 66/246/66
f 69/247/67 70/248/67 66/249/67
f 70/250/68 71/251/68 66/252/68
f 71/253/69 72/254/69 66/255/69
f 72/256/70 73/257/70 66/258/70
f 73/259/71 74/260/71 66/261/71
f 74/262/72 75/263/72 66/264/72
f 75/265/73 76/266/73 66/267/73
f 76/268/74 77/269/74 66/270/74
f 77/271/75 78/272/75 66/273/75
f 78/274/76 79/275/76 66/276/76
f 79/277/77 80/278/77 66/279/77
f 80/280/78 81/281/78 66/282/78
f 81/283/79 82/284/79 66/285/79
f 82/286/80 67/287/80 66/288/80