# Made in Blockbench 4.7.2
mtllib konyvbelseje.mtl

o cube
v 0.12500000000000008 1.3500000000000016 0.5
v 0.12500000000000008 1.3500000000000016 -0.48750000000000004
v 0.12500000000000008 0.8999999999999997 0.5
v 0.12500000000000008 0.8999999999999997 -0.48750000000000004
vt 1.0069010416666668 0.001080729166666794
vt 1.0069010416666668 1
vt 0 1
vt 0 0.001080729166666794
vn -1 0 0
usemtl m_63cdffc2-9c7f-c39b-6f32-50d04b44da47
f 3/1/1 1/2/1 2/3/1 4/4/1
o cube_selection
v 0.20624999999999996 1.3500000000000012 0.5
v 0.20624999999999996 1.3500000000000012 -0.48750000000000004
v 0.20624999999999996 0.8999999999999997 0.5
v 0.20624999999999996 0.8999999999999997 -0.48750000000000004
v 0.12500000000000008 1.3500000000000016 0.5
v 0.12500000000000008 1.3500000000000016 -0.48750000000000004
v 0.12500000000000008 0.8999999999999997 0.5
v 0.12500000000000008 0.8999999999999997 -0.48750000000000004
vt 1 1
vt 0 1
vt 0 0.5
vt 1 0.5
vt 0 0
vt 1 0
vt 1 1
vt 0 1
vt 1 0.5
vt 1 1
vt 0 1
vt 0 0.5
vt 1 1
vt 0 1
vt 0 0.5
vt 1 0.5
vt 1 0
vt 1 1
vt 0 1
vt 0 0
vn 1 0 0
vn 5.465713352000779e-15 1 0
vn 0 0 1
vn 0 0 -1
vn 0 -1 0
usemtl m_63cdffc2-9c7f-c39b-6f32-50d04b44da47
f 6/5/2 5/6/2 7/7/2 8/8/2
f 9/9/3 5/10/3 6/11/3 10/12/3
f 7/13/4 5/14/4 9/15/4 11/16/4
f 10/17/5 6/18/5 8/19/5 12/20/5
f 8/21/6 7/22/6 11/23/6 12/24/6