# Made in Blockbench 4.7.4
mtllib degree.mtl

o cylinder
v 0.08373412263472582 0.06250000000000022 0.375
v 0.08373412263472582 3 0.375
v 0.2287658773652741 0.06250000000000022 0.274519052838329
v 0.2287658773652741 3 0.274519052838329
v 0.3125 0.06250000000000022 0.10048094716167098
v 0.3125 3 0.10048094716167098
v 0.3125 0.06250000000000022 -0.10048094716167104
v 0.3125 3 -0.10048094716167104
v 0.23501587736527418 0.06250000000000022 -0.274519052838329
v 0.22876587736527418 3 -0.274519052838329
v 0.08418285244550398 0.06250000000000022 -0.3749999999999999
v 0.08373412263472592 3 -0.3749999999999999
v -0.08998412263472572 0.06250000000000022 -0.375
v -0.08373412263472571 3 -0.375
v -0.22876587736527415 0.06250000000000022 -0.274519052838329
v -0.22876587736527415 3 -0.274519052838329
v -0.3125 0.06250000000000022 -0.10048094716167096
v -0.3125 3 -0.10048094716167096
v -0.3125 0.06250000000000022 0.10048094716167082
v -0.3125 3 0.10048094716167082
v -0.22876587736527423 0.06250000000000022 0.2745190528383289
v -0.22876587736527423 3 0.2745190528383289
v -0.08373412263472582 0.06250000000000022 0.375
v -0.08373412263472582 3 0.375
vt 0 0.6839999999999999
vt 1.00695 0.6839999999999999
vt 1.00695 0.7975098934550988
vt 0 0.7975098934550988
vt 0 0.7277686453576864
vt 0.9325567776647573 0.7277686453576864
vt 0.9325567776647573 1
vt 0 1
vt 0 0.7277686453576864
vt 0.9325567776647573 0.7277686453576864
vt 0.9325567776647573 1
vt 0 1
vt 0 0.7277686453576864
vt 0.9325567776647573 0.7277686453576864
vt 0.9325567776647573 1
vt 0 1
vt 0 0.7277686453576864
vt 0.9325567776647573 0.7277686453576864
vt 0.9325567776647573 1
vt 0 1
vt 0 0.7277686453576864
vt 0.9325567776647573 0.7277686453576864
vt 0.9325567776647573 1
vt 0 1
vt 0 0.8566697108066971
vt 0.9530418678730127 0.8566697108066971
vt 0.9530418678730127 1
vt 0 1
vt 0 0.7277686453576864
vt 0.9325567776647573 0.7277686453576864
vt 0.9325567776647573 1
vt 0 1
vt 0 0.7277686453576864
vt 0.9325567776647573 0.7277686453576864
vt 0.9325567776647573 1
vt 0 1
vt 0 0.7277686453576864
vt 0.9325567776647573 0.7277686453576864
vt 0.9325567776647573 1
vt 0 1
vt 0 0.7277686453576864
vt 0.9325567776647573 0.7277686453576864
vt 0.9325567776647573 1
vt 0 1
vt 0 0.7277686453576864
vt 0.9325567776647573 0.7277686453576864
vt 0.9325567776647573 1
vt 0 1
vn 0.5694947974514994 0 0.8219949365267865
vn 0.9011271137791659 0 0.4335549847620601
vn 1 0 0
vn 0.9135488699774189 0.001943720999951955 -0.4067243342998492
vn 0.5544159512275865 0.00008469207315292235 -0.8322397165791016
vn 6.374474977898274e-16 -1.356271271893257e-18 -1
vn -0.5864478403983285 0 -0.8099869940265317
vn -0.901127113779166 0 -0.4335549847620599
vn -1 0 0
vn -0.9011271137791662 0 0.4335549847620595
vn -0.5694947974514996 0 0.8219949365267865
vn 0 0 1
usemtl m_35362fef-6679-ce9c-15a7-4cba47ea4ec7
f 1/1/1 3/2/1 4/3/1 2/4/1
f 3/5/2 5/6/2 6/7/2 4/8/2
f 5/9/3 7/10/3 8/11/3 6/12/3
f 7/13/4 9/14/4 10/15/4 8/16/4
f 9/17/5 11/18/5 12/19/5 10/20/5
f 11/21/6 13/22/6 14/23/6 12/24/6
f 13/25/7 15/26/7 16/27/7 14/28/7
f 15/29/8 17/30/8 18/31/8 16/32/8
f 17/33/9 19/34/9 20/35/9 18/36/9
f 19/37/10 21/38/10 22/39/10 20/40/10
f 21/41/11 23/42/11 24/43/11 22/44/11
f 23/45/12 1/46/12 2/47/12 24/48/12
o cuboid
v 0.2773474673981451 1.5124427395855786 1.773781740758984e-8
v 0.1338411802612366 1.8588975642773111 9.842804805579308e-9
v 0.2773474673981451 1.5124427395855786 1.773781740758984e-8
v 0.1338411802612366 1.8588975642773111 9.842804805579308e-9
v -0.9929868898048744 0.9862530200835804 1.647390386778913e-8
v -1.136493176941783 1.332707844775313 8.578891265778599e-9
v -0.9929868898048744 0.9862530200835804 1.647390386778913e-8
v -1.136493176941783 1.332707844775313 8.578891265778599e-9
vt 0.291 0.138
vt 0.291 0.09199999999999997
vt 0.563 0.138
vt 0.563 0.09199999999999997
vt 0.563 0.138
vt 0.291 0.138
vt 0.563 0.09199999999999997
vt 0.291 0.09199999999999997
vt 0.291 0.04600000000000015
vt 0.563 0.04600000000000015
vt 0.563 0.138
vt 0.291 0.138
vt 0.394088 0.09503600000000001
vt 0.394088 0.138
vt 0.291 0.138
vt 0.291 0.09503600000000001
vt 0.563 0.138
vt 0.291 0.138
vt 0.563 0.09199999999999997
vt 0.291 0.09199999999999997
vt 0.291 0.138
vt 0.291 0.09199999999999997
vt 0.563 0.138
vt 0.563 0.09199999999999997
vn 0 0 0
vn 0 0 0
vn -8.9060138867856e-9 1.9099008425747238e-8 0.9999999999999999
vn 8.9060138867856e-9 -1.9099008425747238e-8 -0.9999999999999999
vn 0 0 0
vn 0 0 0
usemtl m_35362fef-6679-ce9c-15a7-4cba47ea4ec7
f 25/49/13 27/50/13 26/51/13 28/52/13
f 29/53/14 30/54/14 31/55/14 32/56/14
f 29/57/15 25/58/15 26/59/15 30/60/15
f 28/61/16 27/62/16 31/63/16 32/64/16
f 25/65/17 29/66/17 27/67/17 31/68/17
f 26/69/18 28/70/18 30/71/18 32/72/18
o cuboid
v 0.15535504362465946 1.0497989022518008 0.025000018210304592
v 0.29886133076156807 1.3962537269435331 0.025000007045070646
v 0.15535504362465946 1.0497989022518008 0.025000018210304592
v 0.29886133076156807 1.3962537269435331 0.025000007045070646
v -1.1149793135783597 1.5759886217537993 0.025000016422860927
v -0.9714730264414511 1.9224434464455316 0.02500000525762698
v -1.1149793135783597 1.5759886217537993 0.025000016422860927
v -0.9714730264414511 1.9224434464455316 0.02500000525762698
v -0.9032569207111899 1.4882903351701329 0.025000016720768205
v -0.7597506335742813 1.8347451598618651 0.02500000555553426
v -0.7597506335742813 1.8347451598618651 0.02500000555553426
v -0.9032569207111899 1.4882903351701329 0.025000016720768205
vt 0.291 0.138
vt 0.291 0.09199999999999997
vt 0.563 0.138
vt 0.563 0.09199999999999997
vt 0.563 0.138
vt 0.291 0.138
vt 0.563 0.09199999999999997
vt 0.291 0.09199999999999997
vt 0.394088 0.138
vt 0.3081813333333333 0.138
vt 0.3081813333333333 0.09503600000000001
vt 0.394088 0.09503600000000001
vt 0.563 0.138
vt 0.5176666666666667 0.09199999999999997
vt 0.3363333333333333 0.138
vt 0.291 0.09199999999999997
vt 0.291 0.09199999999999997
vt 0.5176666666666667 0.138
vt 0.5176666666666667 0.09199999999999997
vt 0.291 0.138
vt 0.291 0.138
vt 0.291 0.138
vt 0.291 0.138
vt 0.291 0.138
vt 0.291 0.138
vt 0.291 0.138
vt 0.291 0.138
vt 0.291 0.138
vt 0.563 0.138
vt 0.5176666666666667 0.138
vt 0.5176666666666667 0.09199999999999997
vt 0.563 0.09199999999999997
vt 0.291 0.04600000000000015
vt 0.3363333333333333 0.04600000000000015
vt 0.3363333333333333 0.138
vt 0.291 0.138
vt 0.563 0.09199999999999997
vt 0.5176666666666667 0.09199999999999997
vt 0.3363333333333333 0.138
vt 0.291 0.138
vn 0 0 0
vn 0 0 0
vn -1.0192994591747865e-8 -2.8005022431700978e-8 -0.9999999999999996
vn 0 0 0
vn 0 0 0
vn 1.0192994591747865e-8 2.8005022431700978e-8 0.9999999999999996
vn 1.0192994591747865e-8 2.8005022431700978e-8 0.9999999999999996
vn 0 0 0
vn -1.0192994591747865e-8 -2.8005022431700978e-8 -0.9999999999999996
vn 0 0 0
usemtl m_35362fef-6679-ce9c-15a7-4cba47ea4ec7
f 33/73/19 35/74/19 34/75/19 36/76/19
f 37/77/20 38/78/20 39/79/20 40/80/20
f 35/81/21 44/82/21 43/83/21 36/84/21
f 33/85/22 44/86/22 41/87/22 39/88/22
f 36/89/23 42/90/23 43/91/23 34/92/23
f 34/93/24 42/94/24 41/95/24 33/96/24
f 37/97/25 41/98/25 42/99/25 38/100/25
f 38/101/26 42/102/26 43/103/26 40/104/26
f 40/105/27 43/106/27 44/107/27 39/108/27
f 35/109/28 44/110/28 41/111/28 37/112/28
o cylinder
v 0.08792082876646211 1.2343750000000004 0.39375
v 0.08792082876646211 1.703125 0.39375
v 0.2402041712335378 1.2343750000000004 0.2878179052574106
v 0.2402041712335378 1.703125 0.2878179052574106
v 0.328125 1.2343750000000004 0.10433813501104573
v 0.328125 1.703125 0.10433813501104573
v 0.328125 1.2343750000000004 -0.10752605447413306
v 0.328125 1.703125 -0.10752605447413306
v 0.24676667123353788 1.2343750000000004 -0.29100582472049785
v 0.24020417123353788 1.703125 -0.29100582472049785
v 0.08839199506777919 1.2343750000000004 -0.3969379194630871
v 0.0879208287664622 1.703125 -0.3969379194630871
v -0.094483328766462 1.2343750000000004 -0.41875
v -0.08792082876646198 1.703125 -0.41875
v -0.24020417123353785 1.2343750000000004 -0.2691937441835851
v -0.24020417123353785 1.703125 -0.2691937441835851
v -0.328125 1.2343750000000004 -0.10752605447413295
v -0.328125 1.703125 -0.10752605447413295
v -0.328125 1.2343750000000004 0.10433813501104557
v -0.328125 1.703125 0.10433813501104557
v -0.24020417123353793 1.2343750000000004 0.2878179052574105
v -0.24020417123353793 1.703125 0.2878179052574105
v -0.08792082876646211 1.2343750000000004 0.39375
v -0.08792082876646211 1.703125 0.39375
v -0.21482361415569196 1.2343750000000004 0.3054732543811754
v -0.21482361415569196 1.703125 0.3054732543811754
vt 0.39500000000000013 0
vt 0.7219500000000004 0
vt 0.7219500000000004 0.15999999999999992
vt 0.39500000000000013 0.15999999999999992
vt 0.39500000000000013 0
vt 0.7219500000000004 0
vt 0.7219500000000004 0.15999999999999992
vt 0.39500000000000013 0.15999999999999992
vt 0.39500000000000013 0
vt 0.7219500000000004 0
vt 0.7219500000000004 0.15999999999999992
vt 0.39500000000000013 0.15999999999999992
vt 0.39500000000000013 0
vt 0.7219500000000004 0
vt 0.7219500000000004 0.15999999999999992
vt 0.39500000000000013 0.15999999999999992
vt 0.5557745454545453 0
vt 0.803 0
vt 0.803 0.137
vt 0.5557745454545453 0.137
vt 0.4130000000000002 0
vt 0.6262254545454549 0
vt 0.6262254545454549 0.17200000000000015
vt 0.4130000000000002 0.17200000000000015
vt 0 0.07499999999999996
vt 0.26422545454545454 0.07499999999999996
vt 0.26422545454545454 0.534
vt 0 0.534
vt 0.39500000000000013 0
vt 0.7219500000000004 0
vt 0.7219500000000004 0.15999999999999992
vt 0.39500000000000013 0.15999999999999992
vt 0.39500000000000013 0
vt 0.7219500000000004 0
vt 0.7219500000000004 0.15999999999999992
vt 0.39500000000000013 0.15999999999999992
vt 0.39500000000000013 0
vt 0.7219500000000004 0
vt 0.6569500000000004 0
vt 0.39500000000000013 0.15999999999999992
vt 0.39500000000000013 0
vt 0.7219500000000004 0
vt 0.7219500000000004 0.15999999999999992
vt 0.39500000000000013 0.15999999999999992
vt 0.6326473199290916 0.15999999999999992
vt 0.43460788665484873 0.15999999999999992
vt 0.3766078866548487 0.12800000000000022
vt 0.6326473199290916 0.01000000000000012
vt 0.5174019876998193 0
vt 0.9580000000000001 0.026000000000000134
vt 1 0.16956250000000006
vt 0.2994019876998193 0.13556250000000025
vn 0.5710494359358643 0 0.8209156727200007
vn 0.9018094419912958 0 0.43213392638781334
vn 1 0 0
vn 0.9140844250494998 0.012797181950692986 -0.4053219658691672
vn 0.5559674622667644 0.0005588333500774916 -0.8312038670542511
vn 0.11843334878405178 -0.0016580668829767236 -0.9929606199190413
vn -0.716231114276981 0 -0.6978631606135649
vn -0.8784923505109775 0 -0.47775641292786203
vn -1 0 0
vn -0.901809441991296 0 0.4321339263878126
vn 0 0 1
vn -0.5710494359358644 0 0.8209156727200005
vn -0.5710494359358632 0 0.8209156727200014
usemtl m_35362fef-6679-ce9c-15a7-4cba47ea4ec7
f 45/113/29 47/114/29 48/115/29 46/116/29
f 47/117/30 49/118/30 50/119/30 48/120/30
f 49/121/31 51/122/31 52/123/31 50/124/31
f 51/125/32 53/126/32 54/127/32 52/128/32
f 53/129/33 55/130/33 56/131/33 54/132/33
f 55/133/34 57/134/34 58/135/34 56/136/34
f 57/137/35 59/138/35 60/139/35 58/140/35
f 59/141/36 61/142/36 62/143/36 60/144/36
f 61/145/37 63/146/37 64/147/37 62/148/37
f 63/149/38 65/150/38 66/151/38 64/152/38
f 67/153/39 45/154/39 46/155/39 68/156/39
f 68/157/40 70/158/40 69/159/40 67/160/40
f 65/161/41 69/162/41 70/163/41 66/164/41
o cylinder
v 0.07117400423951695 0.10937500000000022 0.321875
v 0.07117400423951695 2.953125 0.321875
v 0.19445099576048297 0.10937500000000022 0.24645417123353788
v 0.19445099576048297 2.953125 0.24645417123353788
v 0.265625 0.10937500000000022 0.08792082876646211
v 0.265625 2.953125 0.08792082876646211
v 0.265625 0.10937500000000022 -0.08792082876646216
v 0.265625 2.953125 -0.08792082876646216
v 0.19976349576048305 0.10937500000000022 -0.24020417123353788
v 0.19445099576048305 2.953125 -0.24020417123353788
v 0.07155542457867839 0.10937500000000022 -0.3281249999999999
v 0.07117400423951703 2.953125 -0.3281249999999999
v -0.07648650423951686 0.10937500000000022 -0.328125
v -0.07117400423951685 2.953125 -0.328125
v -0.19445099576048303 0.10937500000000022 -0.24020417123353788
v -0.19445099576048303 2.953125 -0.24020417123353788
v -0.265625 0.10937500000000022 -0.08792082876646208
v -0.265625 2.953125 -0.08792082876646208
v -0.265625 0.10937500000000022 0.08792082876646197
v -0.265625 2.953125 0.08792082876646197
v -0.19445099576048308 0.10937500000000022 0.24020417123353777
v -0.19445099576048308 2.953125 0.24020417123353777
v -0.07117400423951695 0.10937500000000022 0.328125
v -0.07117400423951695 2.953125 0.328125
vt 1.00295 0.7867926045016076
vt 1.00295 0.6849999999999998
vt 0 0.6849999999999998
vt 0 0.7867926045016076
vt 0.9513876032804945 1
vt 0.9513876032804945 0.735136655948553
vt 0 0.735136655948553
vt 0 1
vt 0.9513876032804945 1
vt 0.9513876032804945 0.735136655948553
vt 0 0.735136655948553
vt 0 1
vt 0.9513876032804945 1
vt 0.9513876032804945 0.735136655948553
vt 0 0.735136655948553
vt 0 1
vt 0.9513876032804945 1
vt 0.9513876032804945 0.735136655948553
vt 0 0.735136655948553
vt 0 1
vt 0.9513876032804945 1
vt 0.9513876032804945 0.735136655948553
vt 0 0.735136655948553
vt 0 1
vt 0.9513876032804945 1
vt 0.9513876032804945 0.735136655948553
vt 0 0.735136655948553
vt 0 1
vt 0.9513876032804945 1
vt 0.9513876032804945 0.735136655948553
vt 0 0.735136655948553
vt 0 1
vt 0.9513876032804945 1
vt 0.9513876032804945 0.735136655948553
vt 0 0.735136655948553
vt 0 1
vt 0.9513876032804945 1
vt 0.9513876032804945 0.735136655948553
vt 0 0.735136655948553
vt 0 1
vt 0.9513876032804945 1
vt 0.9513876032804945 0.735136655948553
vt 0 0.735136655948553
vt 0 1
vt 0.9513876032804945 1
vt 0.9513876032804945 0.735136655948553
vt 0 0.735136655948553
vt 0 1
vn -0.5218776214208483 0 -0.8530203680218414
vn -0.912278631206814 0 -0.40957013934541464
vn -1 0 0
vn -0.9178353792388378 -0.001714637521654971 0.39695752497675124
vn -0.565557767871735 -0.0000758559070371792 0.8247086791381683
vn -7.499382326939147e-16 1.4009835116259975e-18 1
vn 0.5975937160061174 0 0.801799071207993
vn 0.9059357609553053 0 0.42341515917871014
vn 1 0 0
vn 0.9059357609553054 0 -0.42341515917870987
vn 0.5806513267897978 0 -0.8141523424379786
vn -0.04386422018505169 0 -0.9990375018924752
usemtl m_35362fef-6679-ce9c-15a7-4cba47ea4ec7
f 74/165/42 73/166/42 71/167/42 72/168/42
f 76/169/43 75/170/43 73/171/43 74/172/43
f 78/173/44 77/174/44 75/175/44 76/176/44
f 80/177/45 79/178/45 77/179/45 78/180/45
f 82/181/46 81/182/46 79/183/46 80/184/46
f 84/185/47 83/186/47 81/187/47 82/188/47
f 86/189/48 85/190/48 83/191/48 84/192/48
f 88/193/49 87/194/49 85/195/49 86/196/49
f 90/197/50 89/198/50 87/199/50 88/200/50
f 92/201/51 91/202/51 89/203/51 90/204/51
f 94/205/52 93/206/52 91/207/52 92/208/52
f 72/209/53 71/210/53 93/211/53 94/212/53