# Made in Blockbench 4.7.2
mtllib openBook.mtl

o cube
o cube_selection
o cube_selection
o cube_selection
v 0.2156267848563665 1.375 0.09062321514363653
v 0.2156267848563665 0.8749999999999998 0.09062321514363653
v 0.21562678485636602 1.375 0.528123215143629
v 0.21562678485636602 0.8749999999999998 0.528123215143629
vt 0.374 0.20399999999999974
vt 0.374 0.7200000000000002
vt 0.102 0.7200000000000002
vt 0.102 0.20399999999999974
vn 1 0 1.078502366778742e-15
usemtl m_c11a6f4a-63ff-26b3-bac0-a8e15c9984d6
f 2/1/1 1/2/1 3/3/1 4/4/1
o cube_selection_selection
v 0.2203142848563662 1.3562499999999997 0.5031232151436299
v 0.2203142848563662 0.8937499999999998 0.5031232151436299
v 0.1265642848563675 1.3562499999999997 0.5031232151436297
v 0.1265642848563675 0.8937499999999998 0.5031232151436297
vt 0.3739999999999997 0.1999999999999995
vt 0.3739999999999997 0.16899999999999937
vt 0.6519999999999998 0.16899999999999937
vt 0.6519999999999995 0.1999999999999995
vn -2.3684757858670336e-15 0 1
usemtl m_c11a6f4a-63ff-26b3-bac0-a8e15c9984d6
f 5/5/2 7/6/2 8/7/2 6/8/2
o cube_selection
v 0.21875 1.375 0.09375
v 0.21875 1.375 -0.09375
v 0.21875 0.875 0.09375
v 0.21875 0.875 -0.09375
vt 0.5860000000000003 0.9799999999999999
vt 0.44400000000000006 0.9799999999999999
vt 0.44400000000000006 0.6179999999999998
vt 0.5860000000000003 0.6179999999999998
vn 1 0 0
usemtl m_c11a6f4a-63ff-26b3-bac0-a8e15c9984d6
f 10/9/3 9/10/3 11/11/3 12/12/3
o cube_selection_selection
v 0.21997325316304372 0.8991818872970281 0.49900219023792936
v 0.1175231779737172 0.9000000000000006 -0.4927521123650549
v 0.12624913198754148 0.9000000000000006 0.5040999781519759
v 0.21124729914921947 0.8991818872970281 -0.4978499002791028
vt 0.37800000000000006 0.19399999999999973
vt 0.37800000000000006 0.16699999999999948
vt 0.6480000000000004 0.16699999999999948
vt 0.6480000000000004 0.19399999999999973
vn -0.008724458951884267 -0.9999619382674902 0.00007636963229936579
usemtl m_c11a6f4a-63ff-26b3-bac0-a8e15c9984d6
f 13/13/4 15/14/4 14/15/4 16/16/4
o cube_selection
v 0.21111452498099237 1.3749999999999996 -0.08340150917877419
v 0.21111452498099237 0.875 -0.08340150917877419
v 0.22065853718361284 1.3749999999999996 -0.5207973960262325
v 0.22065853718361284 0.875 -0.5207973960262325
vt 0.9240000000000004 0.72
vt 0.6500000000000001 0.72
vt 0.6500000000000001 0.20399999999999974
vt 0.9240000000000004 0.20399999999999974
vn 0.9997620270799091 0 0.02181488503456116
usemtl m_c11a6f4a-63ff-26b3-bac0-a8e15c9984d6
f 19/17/5 17/18/5 18/19/5 20/20/5
o cube_selection_selection
v 0.11127317797371722 1.3562499999999993 -0.4895548326799859
v 0.11127317797371722 0.8937499999999999 -0.4895548326799859
v 0.20500086801245823 1.3562499999999993 -0.491599978151976
v 0.20500086801245823 0.8937499999999999 -0.491599978151976
vt 0.3739999999999997 0.16899999999999937
vt 0.6519999999999998 0.16899999999999937
vt 0.6520000000000001 0.13799999999999923
vt 0.3739999999999997 0.13799999999999923
vn -0.021814885034561006 0 -0.9997620270799092
usemtl m_c11a6f4a-63ff-26b3-bac0-a8e15c9984d6
f 23/21/6 24/22/6 22/23/6 21/24/6
o cube_selection_selection_selection
v 0.21124729914921947 1.3554318872970281 -0.4978499002791028
v 0.21997325316304372 1.3554318872970281 0.49900219023792936
v 0.1175231779737172 1.3562500000000006 -0.4927521123650549
v 0.12624913198754148 1.3562500000000006 0.5040999781519759
vt 0.37800000000000006 0.19399999999999973
vt 0.37800000000000006 0.16699999999999948
vt 0.6480000000000004 0.16699999999999948
vt 0.6480000000000004 0.19399999999999973
vn -0.008724458951884267 -0.9999619382674902 0.00007636963229936579
usemtl m_c11a6f4a-63ff-26b3-bac0-a8e15c9984d6
f 26/25/7 28/26/7 27/27/7 25/28/7