# Made in Blockbench 4.7.2
mtllib SMGMAGAZINE.mtl

o cube_selection
v -0.006261495676145555 0.32255670032088574 0.015625
v -0.006261495676145555 0.32255670032088574 -0.015625
v -0.037392579991512596 0.3198330833600214 0.015625
v -0.037392579991512596 0.3198330833600214 -0.015625
v -0.08486536607206555 0.5038959722913594 0.015625
v -0.08486536607206555 0.5038959722913594 -0.015625
v -0.1159964503874326 0.5011723553304951 0.015625
v -0.1159964503874326 0.5011723553304951 -0.015625
v -0.04283981391324126 0.38209525199075567 0.015625
v -0.04283981391324126 0.38209525199075567 -0.015625
v -0.07397089822860829 0.37937163502989135 -0.015625
v -0.07397089822860829 0.37937163502989135 0.015625
v -0.0062614956761455585 0.3225567003208858 0.015625
v -0.0062614956761455585 0.3225567003208858 -0.015625
v -0.03739257999151262 0.3198330833600215 -0.015625
v -0.03739257999151262 0.3198330833600215 0.015625
v -0.08486536607206555 0.5038959722913594 -0.015625
v -0.04283981391324126 0.38209525199075567 -0.015625
v -0.07397089822860829 0.37937163502989135 -0.015625
v -0.1159964503874326 0.5011723553304951 -0.015625
vt 0.59375 0.59375
vt 0.625 0.59375
vt 0.625 0.625
vt 0.59375 0.625
vt 0.5560012298747763 0.5555679785330951
vt 0.5560012298747763 0.5131838053690686
vt 0.7379947450805008 0.5131838053690686
vt 0.7379947450805008 0.5555679785330951
vt 0.4373183139534884 0.4312388193202147
vt 0.4216933139534884 0.3687388193202147
vt 0.4373183139534884 0.3687388193202147
vt 0.4529433139534884 0.4312388193202147
vt 0.464878689624329 0.5048857558139539
vt 0.464878689624329 0.6372407200357781
vt 0.7166396466905185 0.6372407200357781
vt 0.7166396466905185 0.5048857558139539
vt 0.7083938953488375 0.2239490161001787
vt 0.7884196109123441 0.15071556350626092
vt 0.7002879025044723 0.1668157423971377
vt 0.6989741726296962 0.3831618962432919
vt 0.6900296288014309 0.44387298747764037
vt 0.6940826252236135 0.1979539355992841
vt 0.7097076252236135 0.1979539355992841
vt 0.745010621645796 0.3758944543828273
vt 0.5972579382826482 0.5495841905187836
vt 0.5972579382826482 0.5146466905187835
vt 0.6128829382826482 0.5146466905187835
vt 0.6128829382826482 0.5495841905187836
vt 0.6739294499105543 0.6462432915921291
vt 0.6340982781753127 0.5166033094812166
vt 0.7051794499105543 0.6149932915921291
vt 0.6895544499105543 0.6462432915921291
vt 0.5560012298747763 0.5131838053690686
vt 0.5560012298747763 0.4901978700805011
vt 0.7379947450805008 0.4901978700805011
vt 0.7379947450805008 0.5131838053690686
vt 0.5771919531295416 0.5
vt 0.5127684277292657 0.5
vt 0.5165580468704584 0.46875
vt 0.5809815722707343 0.46875
vn -0.08715574274765818 0.9961946980917455 0
vn 0.945312442495441 0.32616619393079915 0
vn 0 0 -1
vn -0.945312442495441 -0.32616619393079926 0
vn 0 0 1
vn 0 0 -1
vn -0.8520463924205599 -0.5234662789169033 0
vn 0 0 1
vn 0.8520463924205598 0.5234662789169037 0
vn 0 0 -1
usemtl m_a70d592d-b7af-f650-687c-abdc982945ad
f 3/1/1 1/2/1 2/3/1 4/4/1
f 5/5/2 9/6/2 10/7/2 6/8/2
f 6/9/3 10/10/3 11/11/3 8/12/3
f 8/13/4 11/14/4 12/15/4 7/16/4
f 7/17/5 12/18/5 9/19/5 5/20/5
f 10/21/6 14/22/6 15/23/6 11/24/6
f 11/25/7 15/26/7 16/27/7 12/28/7
f 12/29/8 16/30/8 13/31/8 9/32/8
f 9/33/9 13/34/9 14/35/9 10/36/9
f 17/37/10 18/38/10 19/39/10 20/40/10